<svg width="104" height="69" viewBox="0 0 104 69" fill="none" xmlns="http://www.w3.org/2000/svg">
    <path fill-rule="evenodd" clip-rule="evenodd" d="M30.9596 18.8157C30.2191 18.7716 29.4949 19.2123 29.0325 19.8284C28.7691 20.1719 28.6257 20.529 28.5373 20.9304C27.824 21.9156 27.0886 22.8718 26.3511 23.8305C26.1938 24.035 26.0365 24.2396 25.8792 24.4446C23.546 27.5122 21.2128 30.5797 18.8676 33.6284C16.5822 36.5964 14.1457 39.4276 11.7005 42.2536C10.3163 43.8495 8.94411 45.4644 7.59764 47.0946C6.44794 48.4929 5.34109 49.9167 4.24289 51.3458C3.60656 52.1771 2.9565 53.0119 2.31159 53.838C2.20734 53.9713 2.09735 54.1048 1.98617 54.2397C1.41507 54.933 0.812645 55.6642 0.795815 56.5902C0.772023 57.5661 1.50415 58.3295 2.35718 58.676C2.73882 58.832 3.13345 58.9513 3.52985 59.0712C3.77526 59.1454 4.02135 59.2198 4.26546 59.3033C4.60255 59.4241 4.93951 59.5516 5.27736 59.6795C6.1126 59.9956 6.95325 60.3137 7.81455 60.5379C9.30219 60.914 10.7897 61.2318 12.2961 61.5375C12.2508 61.5238 12.2066 61.5146 12.1639 61.5058C12.1322 61.4992 12.1013 61.4928 12.0713 61.4848C12.8101 61.6388 13.5548 61.7653 14.2996 61.8919C14.6721 61.9552 15.0449 62.0185 15.4167 62.0852C19.1876 62.7535 22.9721 63.36 26.765 63.9133C27.6544 64.0427 28.5442 64.1666 29.434 64.2904C30.3237 64.4143 31.2141 64.5382 32.1035 64.6676C32.4432 64.7173 32.7852 64.763 33.128 64.8089C33.8015 64.899 34.4782 64.9895 35.1467 65.1109L35.1497 65.1115C36.0957 65.2809 37.0418 65.4504 37.9792 65.6147C38.2501 65.6781 38.5211 65.7396 38.792 65.8011C39.4509 65.9507 40.1099 66.1002 40.7639 66.2763C41.0652 66.3571 41.3661 66.4393 41.6671 66.5215C42.78 66.8254 43.893 67.1294 45.0192 67.3621C46.167 67.605 47.3217 67.8171 48.4949 67.9006C48.7955 67.9231 49.0995 67.9447 49.4035 67.9664L49.4049 67.9665C49.7093 67.9882 50.0138 68.0099 50.3148 68.0324C51.1809 68.0839 52.1001 68.0855 52.959 67.9346L52.9676 67.9397L52.9814 67.9363C53.1649 67.941 53.345 67.9321 53.5319 67.8923C54.1421 67.7676 54.6538 67.223 54.8139 66.643C54.962 66.1025 54.8374 65.5505 54.5261 65.0966C54.4287 64.952 54.3033 64.8207 54.1828 64.6945L54.1549 64.6652C53.861 64.3465 53.5633 64.0317 53.2657 63.7169C52.7401 63.1608 52.2146 62.605 51.7109 62.0289C51.3103 61.5101 50.9234 60.9878 50.5554 60.4535C50.4299 60.2737 50.3076 60.0907 50.1853 59.9077C49.9406 59.5415 49.6959 59.1752 49.4254 58.835C48.5847 57.7854 47.7321 56.7753 46.7904 55.8167C46.53 55.5506 46.2675 55.2831 46.005 55.0156C45.7425 54.7482 45.48 54.4807 45.2197 54.2146C45.1852 54.1745 45.1465 54.1356 45.1068 54.0956C45.0752 54.0638 45.0429 54.0313 45.0117 53.9971C46.4692 53.8776 47.9198 53.7307 49.3599 53.4843C52.6447 52.9188 55.9259 52.2812 59.1691 51.4927C62.9146 50.585 66.6566 49.6635 70.3382 48.5312C70.6609 48.4321 70.9838 48.3332 71.3069 48.2342C74.7102 47.1914 78.1276 46.1443 81.4802 44.9128C81.7652 44.8092 82.0501 44.7074 82.3344 44.6059C83.0295 44.3577 83.7216 44.1106 84.4038 43.8403C85.4354 43.4198 86.467 42.9993 87.5071 42.5839C88.0663 42.3609 88.6092 42.1168 89.1516 41.8728C89.3805 41.7699 89.6093 41.667 89.8392 41.5658C90.0098 41.4891 90.1805 41.413 90.3511 41.3369C90.9926 41.051 91.6315 40.7663 92.25 40.4548C92.5277 40.3171 92.8056 40.1826 93.0829 40.0483C93.7311 39.7346 94.3761 39.4223 95.0085 39.0739C95.9301 38.5645 96.8466 38.0636 97.7631 37.5627L98.0995 37.379C98.854 36.9673 99.6116 36.5539 100.348 36.1016C100.624 36.1268 100.9 36.0936 101.173 35.9885C101.87 35.7178 102.308 35.0242 102.303 34.3108C102.419 34.019 102.462 33.6947 102.418 33.3776C102.399 33.2351 102.363 33.0939 102.311 32.9582C102.658 32.4992 102.866 31.9241 103.059 31.3947L103.083 31.3286C103.224 30.9356 103.361 30.5511 103.48 30.1564L103.482 30.1495C103.584 29.8052 103.685 29.461 103.773 29.1201C103.923 28.499 103.973 27.9466 103.658 27.3624C103.656 27.3556 103.653 27.3509 103.65 27.3462C103.647 27.3415 103.644 27.3367 103.643 27.3299C103.608 27.1345 103.551 26.9373 103.494 26.7402C103.337 26.2037 103.175 25.6758 103.004 25.1428C102.828 24.56 102.614 24.0014 102.345 23.4566C102.197 23.1586 102.037 22.8636 101.877 22.5687C101.797 22.4211 101.716 22.2735 101.638 22.1254C101.551 21.9616 101.468 21.7938 101.384 21.6253C101.242 21.3374 101.098 21.0474 100.932 20.7719L100.931 20.7704C100.696 20.3855 100.46 20.0006 100.211 19.6192C100.05 19.3639 99.9052 19.1033 99.7607 18.8435C99.5669 18.4949 99.3738 18.1478 99.1442 17.8171C98.932 17.5177 98.7152 17.2221 98.4982 16.9263L98.4976 16.9254C98.2172 16.5433 97.9366 16.1607 97.6652 15.7689C97.5247 15.5681 97.3859 15.3645 97.2468 15.1604L97.246 15.1593C96.9001 14.6519 96.5524 14.1419 96.1725 13.6659C96.126 13.6088 96.0796 13.5514 96.0332 13.4941C95.7845 13.1869 95.5351 12.8788 95.2615 12.5975C95.184 12.5151 95.1064 12.436 95.0289 12.3572C94.907 12.2331 94.7857 12.1095 94.6669 11.9745C94.409 11.6457 94.1597 11.322 93.9257 10.9726C93.5211 10.3191 93.166 9.63904 92.8111 8.95949C92.4433 8.25512 92.0759 7.55132 91.6538 6.8783L91.6067 6.8031C91.3656 6.41746 91.1191 6.02333 90.8334 5.67775C90.5171 5.29079 90.146 4.97592 89.7526 4.65943C89.3595 4.34313 88.9852 4.01481 88.6109 3.68647C88.367 3.47086 88.1412 3.24265 87.9212 3.00642C87.8049 2.85939 87.6979 2.70643 87.591 2.55364C87.3929 2.27054 87.195 1.98779 86.9395 1.74441C86.747 1.55957 86.5409 1.37813 86.2902 1.25172C86.1357 1.15942 85.9795 1.08941 85.8079 1.04516C85.2794 0.915861 84.7496 0.983817 84.2648 1.23002C83.6746 1.54085 83.3498 2.17871 83.3598 2.81833C83.3433 2.82141 83.327 2.8243 83.3109 2.82684C82.9595 2.90814 82.6717 3.03908 82.3927 3.29173C82.153 3.49801 81.994 3.76416 81.914 4.05415C81.8594 4.12599 81.7964 4.19274 81.7333 4.25948L81.7325 4.2603C81.6957 4.30239 81.6581 4.34105 81.6204 4.37973C81.5828 4.4184 81.5452 4.45707 81.5084 4.49916L81.4981 4.51629L81.388 4.63692C80.7841 5.29854 80.1747 5.96608 79.5471 6.61237C78.9473 7.23386 78.3054 7.78955 77.6524 8.35491C77.6067 8.39448 77.561 8.43409 77.5152 8.47378C76.8346 9.05736 76.173 9.65805 75.5113 10.2587C74.8497 10.8594 74.188 11.4602 73.5075 12.0437C72.9116 12.5148 72.2915 12.9482 71.6458 13.3662C71.6427 13.3715 71.6362 13.3749 71.6273 13.3795C71.6218 13.3823 71.6153 13.3857 71.6081 13.3903C71.5842 13.4109 71.5466 13.435 71.5089 13.4591C71.5182 13.4511 71.528 13.4427 71.5378 13.435C71.5549 13.4241 71.5721 13.4132 71.5893 13.4024C71.5696 13.4117 71.5531 13.423 71.5378 13.435C71.3588 13.5483 71.1794 13.6614 70.9999 13.7745C70.1613 14.3029 69.3191 14.8336 68.5063 15.4047C68.0861 15.6925 67.6708 15.9881 67.2552 16.2839C66.7544 16.6404 66.2531 16.9972 65.7421 17.3412C65.1162 17.7222 64.4698 18.0532 63.8234 18.3841C63.3925 18.6048 62.9616 18.8254 62.5367 19.0609C62.128 19.284 61.7321 19.5274 61.3367 19.7703C60.796 20.1027 60.2564 20.4344 59.6863 20.7129C59.64 20.7319 59.5938 20.7508 59.5389 20.7646C59.3062 20.8309 59.0731 20.8938 58.8401 20.9566C58.174 21.1364 57.5087 21.3159 56.8548 21.5726C56.07 21.8725 55.3109 22.2461 54.5519 22.6198C53.995 22.8695 53.4176 23.0954 52.8246 23.2887C52.2342 23.4776 51.639 23.655 51.0438 23.8324C50.4486 24.0098 49.8535 24.1872 49.263 24.3762C49.2492 24.3796 49.2217 24.3866 49.203 24.3985C49.1944 24.3934 49.1893 24.402 49.1893 24.402C49.1842 24.4106 49.1756 24.4055 49.1756 24.4055L49.1842 24.4106C49.1756 24.4055 49.1618 24.4089 49.1618 24.4089C48.7865 24.54 48.4203 24.6852 48.054 24.8304C47.6877 24.9756 47.3214 25.1209 46.946 25.2519C46.6547 25.3497 46.3571 25.4231 46.0596 25.4965C45.9109 25.5332 45.7622 25.5699 45.6142 25.6096C45.0418 25.7685 44.4727 25.9411 43.9157 26.1326C43.6024 26.2358 43.2987 26.3589 42.9945 26.4823C42.7495 26.5817 42.5042 26.6812 42.2534 26.7704C42.219 26.7791 42.1852 26.7881 42.1516 26.797C42.0935 26.8124 42.0361 26.8277 41.9776 26.8408C40.8864 27.043 39.8106 27.3325 38.7757 27.7565C38.3456 27.9306 37.912 28.091 37.4698 28.2462C37.4398 28.2574 37.4077 28.2673 37.3756 28.2772C37.3434 28.2872 37.3113 28.2971 37.2813 28.3083C36.9865 28.4118 36.7003 28.5204 36.4089 28.6375L36.409 28.6365C36.4258 28.4722 36.4426 28.3079 36.4457 28.147C36.4603 27.7131 36.4028 27.2827 36.3368 26.8473C36.2795 26.4752 36.2479 26.1185 36.2214 25.7533C36.2056 25.3756 36.2045 24.9941 36.2033 24.6119C36.2001 23.5192 36.1969 22.4204 35.8493 21.3843C35.7433 21.0684 35.6062 20.7681 35.4695 20.4685C35.3414 20.1878 35.2135 19.9076 35.1117 19.6158C35.0988 19.5711 35.086 19.5262 35.0732 19.4812C34.9729 19.129 34.8707 18.7699 34.6876 18.454C34.1454 17.4895 33.0454 17.0887 32.038 17.6052C31.5943 17.841 31.3069 18.2634 31.0471 18.6789C31.0177 18.7245 30.9885 18.7701 30.9596 18.8157ZM41.9754 26.8413C41.9698 26.8424 41.9642 26.8436 41.9586 26.8447C41.9222 26.8521 41.8857 26.8594 41.8471 26.8655C41.8908 26.859 41.9334 26.8507 41.9754 26.8413ZM42.07 26.8239C42.0394 26.8287 42.0102 26.8344 41.9812 26.8402C42.0108 26.8347 42.0404 26.8293 42.07 26.8239ZM38.3105 31.6703C38.3546 31.6564 38.4 31.6404 38.4454 31.6245C38.4003 31.6395 38.3553 31.6548 38.3105 31.6703ZM43.4383 50.5276C43.6384 50.522 43.8388 50.5163 44.0393 50.5159C44.6477 50.4719 45.2476 50.4227 45.8475 50.3735C46.301 50.3395 46.7578 50.2738 47.2122 50.2083C47.4176 50.1787 47.6226 50.1491 47.827 50.1226C48.7237 50.0107 49.6131 49.8515 50.5 49.6928C50.7457 49.6488 50.9915 49.6048 51.237 49.5619C53.1999 49.1619 55.1678 48.7532 57.1238 48.3257C58.8157 47.9502 60.4887 47.5285 62.1669 47.0982C64.2122 46.5753 66.2471 46.0113 68.2821 45.4473L68.2912 45.4448C69.8479 45.012 71.3944 44.5138 72.936 44.0171L73.3319 43.8896C73.7544 43.7576 74.1726 43.623 74.5908 43.4884C75.009 43.3538 75.4272 43.2192 75.8497 43.0872C76.4855 42.872 77.1238 42.6583 77.764 42.444L77.765 42.4436C78.3152 42.2594 78.8669 42.0748 79.4197 41.8882C80.2669 41.6047 81.102 41.2867 81.9383 40.9682C82.3234 40.8215 82.7088 40.6748 83.0956 40.5313C83.9036 40.2359 84.6965 39.9061 85.4913 39.5756C85.8983 39.4063 86.3062 39.2366 86.7165 39.0715C87.495 38.7599 88.2596 38.4071 89.0232 38.0548C89.3706 37.8945 89.7181 37.7341 90.0663 37.5779C92.7408 36.2401 95.4049 34.8611 97.9932 33.3554C97.9313 33.2543 97.8728 33.1524 97.8143 33.0505C97.7558 32.9486 97.6972 32.8467 97.6353 32.7456C97.2683 32.0768 96.9816 31.3674 96.6948 30.6578C96.5284 30.246 96.3618 29.8339 96.1796 29.43C95.992 29.0616 95.794 28.7104 95.5738 28.3576C95.0702 27.595 94.4979 26.8794 93.926 26.1643C93.748 25.9417 93.5694 25.7184 93.3935 25.4945C92.5098 24.3609 91.7596 23.1207 91.0831 21.8547C90.3997 20.5612 89.7077 19.2626 89.0106 17.9726C88.6198 17.2472 88.242 16.5166 87.8647 15.787C87.5273 15.1347 87.1903 14.483 86.845 13.8369C86.4333 13.0599 85.9733 12.3136 85.5133 11.5674C85.3983 11.3808 85.2832 11.1941 85.169 11.007C84.7953 11.4014 84.4316 11.8074 84.0716 12.2093C83.9155 12.3835 83.76 12.5571 83.6048 12.7285C82.6379 13.7817 81.6195 14.8041 80.5152 15.717C80.546 15.6946 80.5747 15.671 80.6034 15.6474C80.6321 15.6238 80.6608 15.6001 80.6916 15.5778C77.7672 18.036 74.726 20.3778 71.5282 22.4747C71.2474 22.656 70.9694 22.8418 70.6912 23.0278C70.1617 23.3817 69.6308 23.7366 69.0773 24.0625C68.608 24.3413 68.1373 24.6222 67.6667 24.903C67.196 25.1839 66.7253 25.4648 66.256 25.7436C66.0725 25.8546 65.8806 25.9524 65.6896 26.0498C65.5578 26.1169 65.4264 26.1839 65.2984 26.2549C64.8609 26.4852 64.4277 26.718 63.9908 26.9529L63.9898 26.9535C63.8163 27.0468 63.6422 27.1404 63.467 27.2343C62.8501 27.5592 62.2125 27.847 61.577 28.134C61.337 28.2423 61.0973 28.3505 60.8592 28.4605C57.8926 29.8233 54.7597 30.8055 51.6493 31.7807C51.2925 31.8926 50.9359 32.0044 50.5799 32.1166C48.6853 32.725 46.7564 33.2551 44.841 33.7816L44.8174 33.7881C43.045 34.2786 41.2763 34.783 39.5143 35.3147C39.1408 35.4262 38.7674 35.5405 38.3936 35.655L38.3922 35.6554C36.8796 36.1186 35.3602 36.5838 33.7962 36.8729C33.023 37.0168 32.2307 37.0561 31.5251 36.6579C31.2539 36.5054 31.0388 36.2851 30.8256 36.0665C30.7783 36.0181 30.731 35.9696 30.6833 35.9221C30.1661 35.4035 29.9245 34.6768 29.7482 33.9774C29.5792 33.307 29.4441 32.6239 29.3094 31.9428C29.265 31.7184 29.2207 31.494 29.1752 31.2705C28.9974 30.4291 28.9048 29.5662 28.8129 28.7091L28.7959 28.5514C28.756 28.195 28.719 27.8404 28.6822 27.488L28.6817 27.484C28.6542 27.2205 28.6268 26.9584 28.5985 26.6978C28.5386 26.7785 28.4779 26.8558 28.4172 26.9331C28.3565 27.0105 28.2957 27.0878 28.2359 27.1685C27.6962 27.877 27.1621 28.5859 26.628 29.2948C26.0938 30.0037 25.5597 30.7126 25.02 31.4211C23.8603 32.9532 22.6972 34.4716 21.5082 35.9745C20.1756 37.6596 18.8171 39.3292 17.4416 40.9886C16.7788 41.797 16.0874 42.5831 15.397 43.368C15.0592 43.752 14.7211 44.1364 14.3872 44.5223L14.2403 44.6928C13.0372 46.0888 11.8398 47.4781 10.6693 48.8943C9.56917 50.2291 8.49487 51.5792 7.44116 52.9533C6.90283 53.6609 6.35598 54.3635 5.80912 55.0661L5.80811 55.0674L5.7972 55.0814C5.70194 55.2044 5.6048 55.3262 5.50702 55.4489C5.39591 55.5882 5.28375 55.7289 5.17279 55.8732C5.25172 55.8971 5.32937 55.9231 5.40702 55.9491C5.48467 55.9751 5.56232 56.0011 5.64125 56.0249C5.99506 56.1528 6.34732 56.2833 6.70118 56.4143C6.98918 56.521 7.2785 56.6282 7.57032 56.7346C8.45926 57.0209 9.36189 57.3038 10.2935 57.4992C10.2558 57.4941 10.2172 57.4856 10.1786 57.4771C10.14 57.4686 10.1014 57.4601 10.0636 57.4551L12.807 58.0105C16.7495 58.723 20.7089 59.3874 24.6667 60.0158C26.1209 60.2474 27.5774 60.4484 29.0314 60.649L29.0338 60.6494C29.3337 60.6907 29.6335 60.7321 29.9332 60.7737C30.4764 60.8514 31.0183 60.9243 31.5588 60.997C31.9364 61.0478 32.314 61.0986 32.69 61.1508C33.0022 61.1952 33.3138 61.237 33.6249 61.2786C34.3084 61.3702 34.99 61.4616 35.6714 61.5804C36.1138 61.6584 36.5549 61.7385 36.996 61.8186L36.9975 61.8189C37.4386 61.899 37.8797 61.9792 38.322 62.0571C38.883 62.1564 39.4413 62.2932 39.9995 62.4301C40.1855 62.4757 40.3716 62.5213 40.5577 62.5655C41.375 62.7553 42.1862 62.9699 42.9975 63.1847C44.0547 63.4644 45.1122 63.7443 46.1839 63.9692C47.0108 64.1254 47.8446 64.2507 48.6852 64.345C48.729 64.3483 48.7742 64.3512 48.8203 64.3542C48.915 64.3603 49.0131 64.3666 49.1088 64.3768C48.973 64.2141 48.8457 64.0566 48.7185 63.8991C48.2929 63.3363 47.8955 62.7664 47.4932 62.1894C47.4096 62.0695 47.3256 61.9491 47.2413 61.8286C46.7511 61.1281 46.2405 60.462 45.7024 59.8028C44.2724 58.2381 42.8133 56.7026 41.267 55.2548C40.8925 54.9263 40.5213 54.6114 40.1212 54.3258C40.0041 54.2481 39.8786 54.1758 39.7545 54.1042C39.6929 54.0687 39.6316 54.0334 39.5718 53.9977L39.3246 53.8849L38.347 53.8252C37.6763 53.7973 36.9678 53.6769 36.5618 53.05C36.1403 52.3906 36.0752 51.5247 36.6108 50.9011C37.1668 50.2432 37.9298 50.1747 38.7325 50.1766C39.1852 50.1791 39.6364 50.2622 40.062 50.3883C40.2 50.3919 40.3399 50.4033 40.4767 50.4144L40.5696 50.4218C40.5657 50.4207 40.5618 50.419 40.5577 50.4165C41.1941 50.4822 41.8287 50.5118 42.4684 50.5328C42.7916 50.5459 43.1148 50.5368 43.4383 50.5276Z" fill="#7779A4"/>
</svg>
    