<svg width="22" height="8" viewBox="0 0 22 8" fill="none" xmlns="http://www.w3.org/2000/svg">
    <path d="M20.8053 3.62659L21.1727 3.99394C21.2701 3.89651 21.3248 3.76437 21.3248 3.62659C21.3248 3.4888 21.2701 3.35666 21.1727 3.25923L20.8053 3.62659ZM17.8665 0.687736L18.2338 0.32038C18.1612 0.247498 18.0686 0.197821 17.9677 0.177645C17.8668 0.157469 17.7622 0.167704 17.6671 0.207052C17.5721 0.246401 17.4908 0.31309 17.4337 0.398666C17.3766 0.484241 17.3462 0.58485 17.3463 0.687736L17.8665 0.687736ZM17.8665 6.56544L17.3463 6.56544C17.3462 6.66832 17.3766 6.76893 17.4337 6.85451C17.4908 6.94008 17.5721 7.00677 17.6671 7.04612C17.7622 7.08547 17.8668 7.0957 17.9677 7.07553C18.0686 7.05535 18.1612 7.00568 18.2338 6.93279L17.8665 6.56544ZM17.8665 3.10641L0.233372 3.10641V4.14676L17.8665 4.14676V3.10641ZM21.1727 3.25923L18.2338 0.32038L17.4991 1.05509L20.438 3.99394L21.1727 3.25923ZM17.3463 0.687736V6.56544L18.3867 6.56544V0.687736L17.3463 0.687736ZM18.2338 6.93279L21.1727 3.99394L20.438 3.25923L17.4991 6.19808L18.2338 6.93279Z" fill="white"/>
    </svg>
    