<svg width="1440" height="98" viewBox="0 0 1440 98" fill="none" xmlns="http://www.w3.org/2000/svg">
    <path d="M-207 35.0049L-189.463 44.7406C-171.926 54.3305 -137.35 74.0207 -101.281 77.7764C-66.5806 81.678 -31.6313 70.0097 3.19374 68.0772C38.765 65.9987 74.0875 74.0207 108.913 68.0772C144.235 62.3524 179.806 42.6622 214.631 38.9064C249.581 35.0049 284.281 46.6731 320.35 54.4398C354.926 62.3524 390 65.9987 424.825 66.1081C460.272 65.9987 495.719 62.3524 530.544 58.3414C565.617 54.3305 600.194 50.6841 636.263 56.4089C670.963 62.3524 705.912 77.667 740.737 87.5121C776.309 97.3573 811.631 101.004 846.456 95.2788C881.654 89.3353 917.35 74.0207 952.175 60.274C987 46.6731 1021.82 35.0049 1056.65 38.9064C1092.35 42.6622 1127.54 62.3524 1162.37 75.8439C1197.69 89.3353 1233.26 97.3573 1268.09 89.4447C1303.04 81.678 1337.74 58.3414 1373.81 56.4089C1408.38 54.3305 1443.46 74.0207 1478.28 83.6106C1513.73 93.3463 1549.17 93.3463 1566.59 93.3463H1584V0H1566.46C1548.93 0 1514.35 0 1478.28 0C1443.58 0 1408.63 0 1373.81 0C1338.23 0 1302.91 0 1268.09 0C1232.77 0 1197.19 0 1162.37 0C1127.42 0 1092.72 0 1056.65 0C1022.07 0 987 0 952.175 0C916.728 0 881.281 0 846.456 0C811.383 0 776.806 0 740.737 0C706.037 0 671.087 0 636.263 0C600.691 0 565.369 0 530.544 0C495.346 0 459.65 0 424.825 0C390 0 355.175 0 320.35 0C284.654 0 249.456 0 214.631 0C179.309 0 143.737 0 108.913 0C73.9631 0 39.2625 0 3.19374 0C-31.3825 0 -66.4563 0 -101.281 0C-136.728 0 -172.175 0 -189.587 0H-207V35.0049Z" fill="#5D5D5D"/>
    </svg>
    