<svg width="63" height="67" viewBox="0 0 63 67" fill="none" xmlns="http://www.w3.org/2000/svg">
    <path d="M31.2315 25.6141C34.2068 25.7453 36.725 23.4397 36.8562 20.4644C36.9874 17.4892 34.6819 14.9709 31.7066 14.8397C28.7313 14.7085 26.2131 17.0141 26.0819 19.9893C25.9507 22.9646 28.2563 25.4829 31.2315 25.6141Z" stroke="black" stroke-width="3" stroke-linecap="round" stroke-linejoin="round"/>
    <path d="M20.8345 64.004L30.3947 44.5932M30.3947 44.5932L38.2093 64.7701M30.3947 44.5932L30.9468 32.0714M47.5928 16.276L30.9466 32.0751L15.7556 14.874M11.1369 11.1203L52.6315 12.9499M55.8058 4.06407L55.0113 22.0826M8.89616 1.99563L8.10165 20.0141M58.5662 4.18579L57.7717 22.2043M61.1468 8.34224L60.7082 18.2892M6.13764 1.87399L5.34313 19.8925M3.20307 5.78726L2.76446 15.7342" stroke="black" stroke-width="3" stroke-linecap="round" stroke-linejoin="round"/>
    </svg>
    