<svg width="1155" height="842" viewBox="0 0 1155 842" fill="none" xmlns="http://www.w3.org/2000/svg">
    <path d="M1155 842C1143.09 832.933 1132.21 823.123 1122.88 811.883C1100.61 784.997 1100.61 751.448 1076.27 724.562C1005.85 646.709 879.054 647.109 765.159 617.764C586.125 571.63 619.059 491.317 602.85 383.861C590.338 300.773 527.995 205.187 380.52 204.501C284.295 204.072 220.576 275.833 149.934 220.432C110.249 189.313 134.886 133.998 117.042 98.3034C92.4059 48.9658 46.9166 21.7086 -6.99994 0L-4.42027 841.943L1155 842ZM850.548 657.32C863.834 661.067 877.893 663.355 891.222 667.102C903.39 670.534 915.342 674.309 927.639 677.57C952.19 684.062 975.536 690.898 996.604 701.681C1024.34 715.867 1062.13 737.118 1058.04 762.86C1057.83 764.232 1055.38 765.462 1053.4 765.491C1038.27 765.52 1027.78 756.024 1018.66 749.217C1003.27 737.69 987.016 726.364 970.334 715.667C951.201 703.426 930.735 693.272 905.84 686.894C894.489 683.977 882.623 681.688 871.573 678.285C860.437 674.853 852.311 669.733 843.712 663.956C841.519 662.468 841.949 660.552 843.54 659.294C844.615 657.721 847.409 656.433 850.548 657.32ZM555.641 467.549C567.336 473.04 571.42 486.54 564.885 494.863C562.778 497.58 559.167 499.926 554.91 501.413C547.257 505.675 535.734 504.674 529.757 499.211C523.437 493.462 521.029 484.138 524.211 477.331C528.382 468.464 542.269 461.257 555.641 467.549ZM358.979 241.568C386.066 232.873 418.227 236.792 441.401 248.862C456.751 256.842 470.681 267.31 483.967 276.805C495.791 285.271 506.798 294.281 516.257 304.005C534.573 322.825 547.3 343.99 552.674 366.156C558.307 389.324 554.609 412.92 552.201 436.145C551.943 438.461 550.61 440.32 548.633 441.722C541.968 449.93 526.017 448.043 517.676 441.779C507.228 433.914 506.927 422.931 502.111 413.406C496.608 402.509 486.805 392.556 476.271 383.489C452.28 362.839 421.064 346.107 391.698 329.003C369.857 316.275 341.351 302.633 330.559 283.899C320.67 266.623 334.901 249.291 358.979 241.568ZM221.436 183.021C200.454 169.064 200.454 146.411 221.436 132.454C242.418 118.496 276.47 118.496 297.452 132.454C318.434 146.411 318.434 169.064 297.452 183.021C276.47 196.979 242.418 196.979 221.436 183.021ZM717.003 549.063C670.826 518.345 670.826 468.55 717.003 437.832C763.181 407.114 838.036 407.114 884.214 437.832C930.391 468.55 930.391 518.345 884.214 549.063C838.036 579.781 763.181 579.781 717.003 549.063ZM922.222 612.787C905.41 601.604 905.41 583.5 922.222 572.345C939.033 561.162 966.249 561.162 983.018 572.345C999.829 583.528 999.829 601.633 983.018 612.787C966.249 623.942 938.99 623.942 922.222 612.787Z" fill="#FFF8E3"/>
    </svg>
    