<svg width="28" height="28" viewBox="0 0 28 28" fill="none" xmlns="http://www.w3.org/2000/svg">
    <circle cx="14" cy="14" r="14" fill="#FFFAEF"/>
    <path d="M19.8998 12.915H13.7771V14.6895H18.1238C17.9034 17.166 15.7869 18.2255 13.7838 18.2255C11.2265 18.2255 8.98305 16.2625 8.98305 13.5C8.98305 10.835 11.1197 8.7745 13.7904 8.7745C15.8536 8.7745 17.0621 10.055 17.0621 10.055L18.3308 8.768C18.3308 8.768 16.7016 7 13.7237 7C9.93118 7 7 10.12 7 13.5C7 16.7825 9.75758 20 13.8238 20C17.396 20 20 17.6145 20 14.0915C20 13.344 19.8998 12.915 19.8998 12.915Z" fill="#A38262"/>
    </svg>
    