<svg width="1440" height="418" viewBox="0 0 1440 418" fill="none" xmlns="http://www.w3.org/2000/svg">
    <path d="M228.565 24C225.353 28.2357 222.426 32.8133 219.929 38.0493C213.969 50.5732 214.127 66.1242 207.603 78.6538C188.723 114.936 154.069 115.103 123.081 129.021C74.3695 150.903 83.7485 188.038 79.8248 237.891C76.7968 276.439 60.2091 320.918 19.9086 321.646C-6.38664 322.112 -24.1387 289.026 -43.1835 314.902C-53.8825 329.436 -46.8891 355.008 -51.5973 371.603C-58.0979 394.54 -70.4013 407.301 -85.034 417.513L-88.2947 27.2464L228.565 24ZM146.23 110.449C149.844 108.675 153.675 107.576 157.3 105.802C160.609 104.177 163.858 102.394 167.203 100.849C173.882 97.7709 180.231 94.5376 185.937 89.481C193.45 82.8283 203.678 72.873 202.441 60.9527C202.375 60.3169 201.7 59.7536 201.159 59.7458C197.023 59.7746 194.2 64.2052 191.741 67.3858C187.589 72.7713 183.201 78.0664 178.692 83.071C173.521 88.7983 167.976 93.5616 161.202 96.5871C158.114 97.9709 154.881 99.0645 151.878 100.673C148.85 102.295 146.654 104.69 144.331 107.392C143.739 108.088 143.865 108.975 144.306 109.554C144.607 110.28 145.377 110.869 146.23 110.449ZM66.5287 199.231C69.6989 196.653 70.7517 190.384 68.9264 186.545C68.3379 185.291 67.3398 184.214 66.1695 183.536C64.0578 181.582 60.9134 182.078 59.3059 184.627C57.6056 187.309 56.9916 191.638 57.8932 194.784C59.0747 198.882 62.904 202.185 66.5287 199.231ZM13.8471 304.524C21.2908 308.479 30.0615 306.574 36.3381 300.915C40.4954 297.173 44.2532 292.282 47.8394 287.844C51.0308 283.887 53.9965 279.68 56.5358 275.147C61.4528 266.372 64.8311 256.526 66.1955 246.237C67.6257 235.483 66.504 224.556 65.7366 213.797C65.6552 212.724 65.2822 211.866 64.7351 211.222C62.8751 207.436 58.5246 208.355 56.2745 211.281C53.4562 214.956 53.4257 220.048 52.1546 224.476C50.7018 229.542 48.0697 234.183 45.2336 238.415C38.7741 248.054 30.3222 255.896 22.3772 263.905C16.468 269.866 8.74184 276.269 5.88075 284.982C3.25954 293.017 7.23051 301.012 13.8471 304.524ZM-23.4665 332.044C-29.1349 338.572 -29.0282 349.072 -23.2283 355.483C-17.4284 361.895 -8.12213 361.8 -2.45371 355.272C3.21472 348.744 3.10802 338.245 -2.69189 331.833C-8.4918 325.422 -17.798 325.516 -23.4665 332.044ZM110.244 160.999C97.7686 175.366 98.0032 198.447 110.768 212.557C123.532 226.668 143.99 226.46 156.465 212.093C168.94 197.726 168.705 174.645 155.941 160.535C143.176 146.425 122.719 146.632 110.244 160.999ZM166.028 130.892C161.486 136.122 161.572 144.514 166.219 149.638C170.866 154.775 178.304 154.699 182.834 149.469C187.375 144.239 187.29 135.847 182.643 130.723C178.008 125.599 170.558 125.675 166.028 130.892Z" fill="#D3F199"/>
    <path d="M-21.9999 6.89594C77.0326 178.748 56.0684 60.5365 140.5 60.5406C142.362 60.5407 140.711 55.7549 137.35 48.919C193.416 95.9244 354.798 60.5097 438 50.5C438 50.5 628.507 134.101 687 50.5C687 50.5 833.5 148 911 162C965.229 171.796 1055.95 126.221 1065.79 97.967C1112.43 114.262 1178.38 120.485 1193.4 76.9078C1214.21 16.5322 1255.09 29.3225 1272.92 43.2647L1342.95 76.9078C1369.96 87.8191 1422.77 96.3661 1417.97 43.2647C1416.28 24.5054 1422.52 13.213 1432.63 6.894L1502 6.89391C1482.59 0.425339 1451.13 -4.67413 1432.63 6.894L799.538 6.89484L112.298 6.89575C108.232 1.09093 106.496 -0.415024 110.068 6.89575L-21.9999 6.89594Z" fill="#D3F199"/>
    </svg>
    