<svg width="74" height="68" viewBox="0 0 74 68" fill="none" xmlns="http://www.w3.org/2000/svg">
    <path d="M59.3721 23.241H52.4884M52.4884 23.241H45.6047M52.4884 23.241V16.3573M52.4884 23.241V30.1247" stroke="black" stroke-width="1.5" stroke-linecap="round"/>
    <path d="M37 11.4493L35.1139 13.2115C35.3554 13.47 35.6474 13.676 35.9719 13.8169C36.2963 13.9578 36.6463 14.0305 37 14.0305C37.3537 14.0305 37.7037 13.9578 38.0281 13.8169C38.3526 13.676 38.6446 13.47 38.8861 13.2115L37 11.4493ZM4.82549 39.3559C4.99578 39.656 5.22451 39.9189 5.49814 40.129C5.77177 40.3392 6.08475 40.4924 6.4186 40.5795C6.75244 40.6666 7.10036 40.686 7.4418 40.6363C7.78324 40.5867 8.11127 40.4692 8.4065 40.2906C8.70172 40.112 8.95816 39.8761 9.16065 39.5967C9.36313 39.3174 9.50756 39.0003 9.58539 38.6641C9.66323 38.328 9.67289 37.9797 9.6138 37.6397C9.55472 37.2998 9.42809 36.9752 9.24139 36.685L4.82549 39.3559ZM18.1971 47.9227C17.9639 47.667 17.6816 47.4608 17.3671 47.3164C17.0525 47.1719 16.7122 47.0922 16.3662 47.082C16.0203 47.0718 15.6758 47.1312 15.3533 47.2568C15.0308 47.3824 14.7368 47.5715 14.4889 47.813C14.2409 48.0545 14.0441 48.3434 13.91 48.6624C13.776 48.9815 13.7074 49.3243 13.7085 49.6704C13.7096 50.0165 13.7803 50.3589 13.9164 50.6771C14.0524 50.9953 14.2511 51.283 14.5006 51.5229L18.1971 47.9227ZM5.16279 24.3356C5.16279 14.337 9.52707 8.15887 14.9239 6.04213C20.3104 3.93227 27.8447 5.43981 35.1139 13.2115L38.8861 9.68706C30.667 0.896549 20.9919 -1.87759 13.0412 1.23385C5.10084 4.34529 0 12.888 0 24.3356H5.16279ZM49.0809 60.9639C54.2196 56.7958 60.3737 51.2097 65.268 44.9696C70.1107 38.7949 74 31.6186 74 24.3287H68.8372C68.8372 29.877 65.8084 35.9072 61.2032 41.7824C56.6461 47.5957 50.8225 52.9065 45.8318 56.9541L49.0809 60.9639ZM74 24.3287C74 12.8845 68.8992 4.34185 60.9553 1.23385C53.0046 -1.88103 43.333 0.889665 35.1139 9.68362L38.8861 13.2115C46.1553 5.43981 53.6896 3.92883 59.0761 6.03869C64.4729 8.15199 68.8372 14.3336 68.8372 24.3287H74ZM24.9191 60.9673C29.2902 64.5193 32.326 67.1248 37 67.1248V61.962C34.5115 61.962 32.9627 60.8469 28.1682 56.9576L24.9191 60.9673ZM45.8318 56.9541C41.0373 60.8434 39.4885 61.962 37 61.962V67.1248C41.674 67.1248 44.7132 64.5193 49.0844 60.9673L45.8318 56.9541ZM9.24484 36.685C6.66688 32.4309 5.16279 28.249 5.16279 24.3356H0C0 29.5397 1.98251 34.6612 4.82549 39.3559L9.24139 36.685H9.24484ZM28.1682 56.9576C24.6733 54.1404 21.3441 51.1237 18.1971 47.9227L14.5006 51.5229C17.7873 54.8691 21.2682 58.0226 24.9191 60.9673L28.1682 56.9576Z" fill="black"/>
    </svg>
    