<svg width="690" height="702" viewBox="0 0 690 702" fill="none" xmlns="http://www.w3.org/2000/svg">
    <path d="M597.565 459.098C595.949 475.588 581.271 487.645 564.782 486.029L152.321 445.598L184.347 118.881C185.964 102.391 200.641 90.3343 217.131 91.9507L599.734 129.455C616.224 131.071 628.281 145.749 626.664 162.239L597.565 459.098Z" fill="#E9DBFF" fill-opacity="0.84"/>
    <path d="M459.827 415.416C446.877 420.608 433.602 424.83 420.772 426.222C407.231 427.696 394.451 426.446 382.414 424.354C370.828 422.336 358.834 420.383 349.204 415.475C340.362 410.975 333.031 404.882 325.581 398.969C309.297 386.052 290.464 374.516 266.66 370.773C253.738 368.74 240.004 369.105 225.255 372.961C210.757 376.753 196.212 382.713 181.863 388.405C153.02 399.853 123.469 409.148 95.1863 411.095C79.6721 412.163 64.8301 411.51 50.9024 408.931C44.9805 407.836 40.4039 406.871 34.5122 405.719L224.998 680.355L656.002 381.413C640.849 372.189 622.119 369.827 601.759 368.813C578.399 367.647 553.625 373.798 528.813 384.067C505.623 393.682 483.093 406.086 459.827 415.416Z" fill="#D3F199"/>
    <path d="M419.702 44.3746C419.702 44.3746 425.66 128.509 424.259 150.368C422.858 172.227 468.08 131.808 473.806 153.642C479.532 175.475 471.635 243.46 479.594 251.378C487.553 259.297 428.366 287.832 425.45 288.808C422.534 289.784 280.613 289.651 280.613 289.651C280.613 289.651 259.774 228.224 245.257 280.78C223.507 260.984 224.751 233.23 224.751 233.23L309.34 161.563L323.559 97.6267C340.096 80.5133 379.285 41.8903 398.765 29.6558L419.702 44.3746Z" fill="#EDE3DC"/>
    <path d="M419.757 44.9094C419.757 44.9094 425.715 129.044 424.314 150.903C422.913 172.762 468.135 132.343 473.861 154.177C479.587 176.01 471.69 243.995 479.649 251.913C487.608 259.832 428.421 288.367 425.505 289.343C422.589 290.319 280.668 290.186 280.668 290.186C280.668 290.186 259.829 228.759 245.312 281.315C223.562 261.519 224.806 233.765 224.806 233.765L309.395 162.097L323.614 98.1614C340.151 81.0482 379.34 42.4251 398.82 30.1906L419.757 44.9094Z" fill="#E69766"/>
    <path d="M419.757 44.9094C419.757 44.9094 425.715 129.044 424.314 150.903C422.913 172.762 468.135 132.343 473.861 154.177C479.587 176.01 471.69 243.995 479.649 251.913C487.608 259.832 428.421 288.367 425.505 289.343C422.589 290.319 280.668 290.186 280.668 290.186C280.668 290.186 259.829 228.759 245.312 281.315C223.562 261.519 224.806 233.765 224.806 233.765L309.395 162.097L323.614 98.1614C340.151 81.0482 379.34 42.4251 398.82 30.1906L419.757 44.9094Z" fill="#261105"/>
    <path d="M410.926 79.5886C406.326 106.579 377.865 107.424 370.87 80.1133C364.298 81.9542 359.021 65.5722 369.232 67.015C369.232 67.015 363.884 36.5086 377.078 27.2081C407.238 10.4287 419.672 45.1731 412.947 65.9249C420.466 65.1363 419.305 80.2815 410.926 79.5886Z" fill="#9C6444"/>
    <path d="M404.443 31.2099C386.205 67.6056 335.165 47.5504 335.927 134.46C337.299 218.961 200.769 191.86 244.118 279.063C244.118 279.063 174.541 244.957 237.461 206.108C300.38 167.26 289.906 151.346 299.774 102.246C307.099 65.7961 335.18 74.6282 351.218 58.6245C367.255 42.6207 371.399 20.9926 387.216 23.3536C403.034 25.7146 404.443 31.2099 404.443 31.2099Z" fill="#261105"/>
    <path d="M243.974 279.883C235.031 276.759 226.072 267.763 222.883 251.205C217.686 209.628 271.783 186.024 311.521 166.355C325.351 160.034 324.1 141.977 322.775 122.859C317.724 82.0936 329.62 70.829 361.847 56.1125C371.59 51.3742 379.288 47.6323 380.659 42.2153C384.83 25.729 396.235 25.3539 396.351 25.3526C398.967 26.2934 384.932 25.3724 381.325 42.3532C379.863 48.1293 372.022 51.9407 362.096 56.7662C330.05 71.5055 318.516 82.127 323.465 122.755C324.807 142.151 326.077 160.472 311.758 167.018C260.936 188.633 189.255 233.485 239.639 277.108C226.984 264.718 228.274 240.282 236.396 223.231C252.745 190.472 292.431 180.994 318.417 165.267C328.298 158.417 328.795 145.777 329.425 129.774C329.221 98.0109 337.48 66.526 367.801 55.3093C374.546 51.9114 380.372 48.9778 383.733 44.1429C394.684 28.7267 400.845 28.4185 401.348 29.3434C400.964 29.9593 394.925 29.1691 384.28 44.5411C380.805 49.5407 374.898 52.5143 368.059 55.9576C337.8 67.2714 330.011 98.178 330.116 129.752C329.476 145.974 328.972 158.788 318.767 165.863C292.914 181.558 253.237 191.01 237.006 223.525C227.623 242.207 228.628 269.858 243.974 279.883Z" fill="black"/>
    <path d="M244.009 279.51C177.723 246.785 237.249 201.499 283.306 177.315C329.55 149.104 294.953 114.488 308.56 87.7316C327.23 58.4724 355.175 71.4097 371.555 39.9389C374.686 24.6913 389.276 23.3407 389.423 23.3281L389.426 24.0514C389.283 24.0619 375.241 25.378 372.229 40.0405C356.327 71.8792 327.719 59.034 309.15 88.0667C298.426 107.439 317.1 130.214 305.032 155.058C300.823 164.904 293.605 172.609 283.581 177.958C237 202.092 179.481 247.737 244.347 278.853L244.009 279.51Z" fill="black"/>
    <path d="M399.051 31.4572C427.605 62.0293 393.421 99.038 414.753 112.924C430.712 122.046 459.682 161.86 457.579 201.39C457.313 285.537 495.419 255.79 534.059 242.144C465.122 218.256 514.645 139.103 468.797 107.99C451.539 95.6143 421.786 105.796 422.982 75.9443C426.732 37.7074 405.207 13.5968 381.501 23.4746C381.501 23.4746 397.73 26.3065 399.051 31.4572Z" fill="#261105"/>
    <path d="M403.181 90.6094C403.181 90.6094 400.824 109.874 409.197 117.481C413.477 121.368 402.029 133.589 391.088 132.917C380.089 132.242 369.243 117.86 373.646 117.248C382.312 116.043 381.72 93.1352 381.72 93.1352C381.72 93.1352 392.743 74.519 403.181 90.6094Z" fill="#9C6444"/>
    <path d="M403.835 91.4129C403.835 91.4129 399.305 114.107 380.447 107.314C381.434 103.629 381.855 95.1572 381.855 95.1572L403.835 91.4129Z" fill="#9C6444"/>
    <path d="M391.617 73.3386C385.492 73.8356 389.635 63.5584 390.316 62.7115C390.525 62.292 391.118 62.6638 390.898 63.083C389.198 66.1875 386.705 74.2885 393.183 72.3909C394.614 73.0654 392.02 73.4212 391.617 73.3386Z" fill="#511918"/>
    <path d="M404.66 57.1073C405.443 58.3017 407.279 57.2492 406.272 55.4469C404.831 52.8662 400.623 51.5643 397.524 53.3078C394.824 54.8243 396.468 56.654 397.664 55.8066C399.828 54.2739 403.189 54.8608 404.66 57.1073Z" fill="#261105"/>
    <path d="M377.308 57.4656C376.558 58.68 374.694 57.676 375.654 55.848C377.027 53.2304 381.199 51.8188 384.343 53.4805C387.081 54.9258 385.486 56.7979 384.268 55.9821C382.065 54.5066 378.721 55.1813 377.308 57.4656Z" fill="#261105"/>
    <path d="M401.299 66.4574C397.146 66.7117 395.546 60.3314 398.101 62.553C398.139 62.6668 398.99 65.0886 401.412 64.9609C403.724 64.8428 404.007 62.8534 404.032 62.6272C405.982 59.8192 406.06 66.5344 401.299 66.4574Z" fill="black"/>
    <path d="M380.309 66.7324C376.156 66.9866 374.556 60.6064 377.111 62.828C377.149 62.9417 378 65.3635 380.423 65.2359C382.735 65.1178 383.018 63.1284 383.043 62.9022C384.993 60.0942 385.07 66.8094 380.309 66.7324Z" fill="black"/>
    <path d="M387.144 79.3875C388.365 83.38 394.563 83.2706 395.712 79.2752L387.144 79.3875Z" fill="#E48584"/>
    <path d="M369.651 71.7741C368.669 70.8351 367.212 69.8947 366.447 71.0135C366.328 71.1696 366.118 71.1912 365.976 71.0595C365.346 70.1423 367.725 69.3193 368.583 70.0287C367.87 68.8679 366.879 67.7946 365.9 69.1053C365.779 69.2601 365.567 69.2772 365.427 69.1419C365.011 68.2574 366.599 67.6069 367.097 67.7739C368.616 68.0789 370.649 71.5836 369.651 71.7741Z" fill="#511918"/>
    <path d="M477.2 253.557C499.79 246.897 552.501 232.071 527.377 288.722L458.186 297.056L477.2 253.557Z" fill="#9C6444"/>
    <path d="M265.082 254.485C265.082 254.485 269.115 245.956 298.165 250.954C327.215 255.952 346.833 262.355 346.833 262.355L351.578 287.922L299.841 282.688L265.082 254.485Z" fill="#9C6444"/>
    <path d="M349.768 257.056L355.313 236.034C355.313 236.034 416.715 230.56 434.286 237.121L442.54 261.101C442.54 261.101 460.169 250.896 475.854 250.245C490.036 252.429 474.329 304.239 474.635 308.378L403.457 334.06L301.9 293.755C308.052 251.797 309.887 239.933 349.768 257.056Z" fill="#565797"/>
    <path d="M435.942 268.907C435.656 268.921 435.484 268.496 435.699 268.272C435.904 268.301 442.551 259.937 442.775 260.836C442.907 260.982 442.908 261.218 442.778 261.364C442.583 261.476 436.203 268.993 435.942 268.907Z" fill="white"/>
    <path d="M358.379 263.988C358.166 264.049 349.989 257.849 349.803 257.786C349.649 257.672 349.606 257.441 349.707 257.269C349.812 256.36 358.342 263.376 358.558 263.303C358.833 263.49 358.697 263.998 358.379 263.988Z" fill="white"/>
    <path d="M396.462 250.518C395.738 250.383 396.394 248.169 396.244 248.259C396.268 247.78 396.95 247.831 396.913 248.314C396.913 248.314 396.87 248.988 396.791 250.174C396.778 250.368 396.634 250.516 396.462 250.518Z" fill="white"/>
    <path d="M396.053 321.178C395.535 321.289 394.264 315.577 395.572 317.282C395.539 318.32 396.886 320.639 396.053 321.178ZM394.611 314.256C394.053 314.452 393.305 308.432 394.451 310.323C394.344 311.404 395.414 313.695 394.611 314.256ZM393.775 307.21C392.953 306.475 393.472 304.511 393.214 303.311C393.184 302.826 393.872 302.795 393.883 303.274C393.708 304.43 394.567 306.546 393.775 307.21ZM393.441 300.114C393.003 300.13 393.11 299.462 393.093 299.157C393.276 298.208 392.634 296.376 393.422 295.815C394.194 296.396 393.546 298.196 393.763 299.148C393.754 299.452 393.881 300.119 393.441 300.114ZM393.488 293.008C392.673 292.364 393.44 290.234 393.279 289.065C393.288 288.578 393.976 288.621 393.948 289.105C393.679 290.327 394.281 292.258 393.488 293.008ZM393.804 285.912C392.984 285.264 393.835 283.097 393.692 281.966C393.719 281.484 394.401 281.543 394.361 282.026C394.069 283.211 394.6 285.15 393.804 285.912ZM394.293 278.83C393.472 278.184 394.371 276.012 394.241 274.884C394.277 274.402 394.954 274.473 394.908 274.955C394.604 276.138 395.091 278.068 394.293 278.83ZM394.879 271.757C394.064 271.199 394.967 268.854 394.83 267.812C394.862 267.329 395.542 267.398 395.497 267.88C395.202 269.033 395.681 270.989 394.879 271.757ZM395.446 264.682C394.631 264.115 395.521 261.735 395.374 260.736C395.402 260.256 396.085 260.316 396.042 260.8C395.755 261.909 396.249 263.906 395.446 264.682ZM395.972 257.6C395.155 257.017 396.043 254.543 395.882 253.655C395.905 253.171 396.59 253.232 396.55 253.715C396.273 254.715 396.778 256.805 395.972 257.6Z" fill="white"/>
    <path d="M397.601 326.313C397.047 326.309 396.154 322.832 397.334 324.066C397.373 324.715 398.41 326.005 397.601 326.313Z" fill="white"/>
    <path d="M390.353 284.669C389.536 284.702 385.372 283.633 387.249 283.054C387.456 283.59 391.877 283.736 390.353 284.669ZM384.772 281.226C384.107 281.167 383.658 277.048 384.387 276.797C384.856 276.816 384.703 277.456 384.731 277.795C384.476 278.911 385.512 281.032 384.772 281.226ZM384.508 273.807C383.686 273.135 384.519 271.019 384.392 269.676C384.415 269.193 385.1 269.252 385.06 269.735C384.75 271.131 385.305 273.025 384.508 273.807ZM385.014 266.356C384.19 265.748 385.119 263.33 384.996 262.225C385.034 261.747 385.713 261.82 385.663 262.303C385.343 263.521 385.823 265.536 385.014 266.356ZM385.685 258.922C384.861 258.391 385.841 255.735 385.719 254.792C385.762 254.31 386.44 254.399 386.385 254.879C386.061 255.994 386.501 258.08 385.685 258.922ZM386.45 251.496C386.249 251.5 386.086 251.3 386.112 251.077C386.359 248.795 386.526 247.356 386.526 247.356C387.6 246.099 387.023 248.591 386.777 251.169C386.757 251.356 386.614 251.494 386.45 251.496Z" fill="white"/>
    <path d="M518.273 248.453C504.145 251.924 488.495 261.095 468.579 268.333C448.662 275.571 392.934 328.995 392.934 328.995L425.267 339.131C431.29 335.939 528.295 310.512 538.922 272.526C538.804 263.667 532.401 244.982 518.273 248.453Z" fill="#9C6444"/>
    <path d="M276.397 251.621C290.611 254.721 306.495 263.479 326.594 270.192C346.694 276.906 403.802 328.853 403.802 328.853L371.745 339.832C365.641 336.799 268.003 313.921 256.384 276.227C256.27 267.368 262.183 248.522 276.397 251.621Z" fill="#9C6444"/>
    <path d="M481.684 263.496C478.759 263.393 499.667 254.939 510.092 252.046C499.257 257.011 481.669 263.166 481.684 263.496Z" fill="#511918"/>
    <path d="M307.989 263.528C307.764 263.07 299.666 260.788 279.803 254.364C299.606 258.774 309.991 263.08 307.989 263.528Z" fill="#511918"/>
    <path d="M418.041 305.975C418.041 305.975 434.146 332 438.699 334.712C433.061 337.958 391.067 346.024 372.664 355.039C368.402 356.849 359.903 362.213 353.634 363.163C349.092 363.852 331.753 361.274 325.177 348.312C314.427 327.12 354.475 341.764 361.779 332.202C372.87 317.679 386.227 326.758 395.361 321.33C404.494 315.901 418.041 305.975 418.041 305.975Z" fill="white"/>
    <path d="M405.519 309.408C405.519 309.408 409.888 336.677 423.963 343.181C438.038 349.684 436.888 341.154 436.888 341.154C436.888 341.154 413.415 309.406 413.787 303.368C414.159 297.33 405.519 309.408 405.519 309.408Z" fill="#565797"/>
    <path d="M430.068 340.935C418.629 336.983 400.532 297.532 404.377 296.582C405.229 296.181 406.213 296.625 406.575 297.574C410.323 307.391 421.951 333.671 430.632 337.324C432.345 337.972 431.852 340.986 430.068 340.935Z" fill="white"/>
    <path d="M379.554 307.434C379.554 307.434 361.187 332.84 356.615 335.484C389.646 348.357 430.375 378.384 464.229 371.017C468.551 369.319 478.034 361.253 476.724 354.115C472.35 330.283 463.134 329.486 446.468 327.97C408.707 327.306 404.386 329.277 379.554 307.434Z" fill="white"/>
    <path d="M386.273 304.513C386.273 304.513 373.812 330.673 359.255 339.996C343.747 349.929 375.705 346.555 375.705 346.555C375.705 346.555 388.999 328.322 393.23 314.708C394.489 310.655 386.273 304.513 386.273 304.513Z" fill="#565797"/>
    <path d="M356.859 354.005C355.204 354.086 354.495 351.392 356.009 350.514C382.735 334.252 389.374 299.446 393.63 300.015C396.693 301.49 391.679 310.144 385.714 322.083C380.098 331.88 370.398 346.607 356.859 354.005Z" fill="white"/>
    <path d="M436.707 335.546C428.857 336.581 408.96 330.018 396.641 321.071C396.265 320.853 396.568 320.176 396.956 320.415C397.053 320.473 406.747 326.27 410.204 328.11C423.125 335.59 438.2 333.815 436.707 335.546Z" fill="#511918"/>
    <path d="M390.299 347.832C389.974 347.397 356.043 336.383 356.296 335.371C356.515 334.319 389.979 347.34 390.395 347.103C390.746 347.216 390.669 347.843 390.299 347.832Z" fill="#511918"/>
    <path d="M421.937 255.731C417.588 256.469 413.962 251.745 413.375 248.232C413.295 248.028 413.374 247.78 413.57 247.709C414.316 247.639 414.916 252.132 417.125 253.615C420.975 256.844 429.47 253.325 429.556 253.289C431.579 253.984 425.559 255.619 421.937 255.731Z" fill="white"/>
    <path d="M368.325 254.387C365.168 254.41 358.357 252.112 360.567 251.595C368.312 255.401 373.245 253.9 376.076 245.307C378.35 243.849 373.173 255.173 368.325 254.387Z" fill="white"/>
    <path d="M352.381 267.494C352.232 267.496 352.095 267.387 352.053 267.219L349.664 257.572C349.615 257.374 349.72 257.169 349.898 257.114C350.501 256.458 352.502 266.949 352.699 267.023C352.759 267.254 352.596 267.495 352.381 267.494Z" fill="white"/>
    <path d="M432.985 265.273C432.623 265.291 432.513 264.676 432.867 264.548L442.427 260.75C442.601 260.682 442.793 260.782 442.855 260.976C443.342 261.653 433.158 265.049 432.985 265.273Z" fill="white"/>
    <path d="M482.103 186.409C483.936 188.465 484.787 193.831 485.337 195.867C489.953 212.962 480.598 235.778 467.846 235.192C466.735 235.141 462.157 232.094 461.503 231.278C454.577 224.637 447.671 211.167 440.445 184.387C442.743 199.208 439.378 211.621 438.002 215.609C434.2 226.621 447.044 235.478 428.677 243.534C406.578 253.225 364.61 245.372 355.841 237.434C342.737 225.573 359.618 225.702 351.778 213.158C344.559 201.606 348.505 183.131 348.505 183.131C344.57 193.539 336.051 219.777 321.149 231.014C298.483 248.381 291.547 212.656 297.081 200.323C297.789 198.745 299.764 191.361 303.035 188.925C317.381 161.369 335.394 122.62 373.645 117.248C380.494 134.331 403.121 140.972 409.665 117.601C454.434 123.391 470.425 161.552 482.103 186.409Z" fill="#DA5DA7"/>
    <path d="M390.822 234.43C384.762 234.23 377.186 233.841 371.412 230.555C392.779 237.394 409.78 231.344 419.597 223.352C430.856 215.421 436.029 203.154 436.519 205.435C430.738 217.222 409.256 235.686 390.822 234.43Z" fill="#565797"/>
    <path d="M392.688 224.071C373.197 223.57 356.41 214.631 356.34 213.371C357.329 212.751 373.051 223.453 392.684 223.325C393.105 223.315 393.127 224.075 392.688 224.071Z" fill="#565797"/>
    <path d="M367.207 119.016C372.496 142.999 409.555 148.439 415.324 119.108L409.666 117.601C402.28 139.01 381.573 135.949 373.646 117.248L367.207 119.016Z" fill="#565797"/>
    <path d="M348.51 183.504C344.437 180.386 343.479 170.499 344.947 172.631C344.947 172.693 345.002 178.562 348.254 182.341L349.69 169.071C349.712 168.866 349.881 168.722 350.062 168.746C350.246 168.771 350.377 168.958 350.355 169.162L348.838 183.177C348.821 183.359 348.674 183.505 348.51 183.504Z" fill="#565797"/>
    <path d="M440.395 185.085C440.214 185.09 440.052 184.916 440.055 184.713L440.022 174.573C440.022 174.367 440.171 174.199 440.356 174.199C441.083 173.799 440.556 183.674 440.722 183.838C443.858 180.224 445.778 170.48 446.57 170.692C447.242 171.157 443.599 182.409 440.395 185.085Z" fill="#565797"/>
    <path d="M322.216 233.892C316.173 236.596 309.669 236.591 302.986 231.774C299.115 228.983 295.185 224.574 291.255 218.143C282.456 203.889 268.599 185.448 267.374 176.415C265.426 149.368 289.637 134.695 301.672 166.316C303.358 172.183 307.371 179.293 310.457 184.245C312.704 187.85 314.46 190.308 314.46 190.308C314.492 190.265 314.529 190.219 314.562 190.176C315.44 191.697 316.428 193.145 317.485 194.232C320.247 197.074 331.698 225.256 322.216 233.892Z" fill="#DA5DA7"/>
    <path d="M275.365 157.214C266.801 172.157 273.686 178.309 282.4 163.5C290.964 148.557 284.079 142.406 275.365 157.214Z" fill="#565797"/>
    <path d="M280.696 147.945L285.385 157.231C285.385 157.231 283.033 164.903 277.635 169.845C275.914 166.613 270.604 154.555 270.604 154.555" fill="#9C6444"/>
    <path d="M275.381 159.994C273.795 160.229 251.444 154.724 253.234 147.747C255.027 146.8 251.439 144.516 253.857 143.54C253.857 143.54 253.524 141.753 253.115 140.439C252.656 138.965 254.143 139.83 254.143 139.83C254.143 139.83 255.84 139.839 255.67 138.11C255.5 136.382 255.19 129.076 256.663 128.087C258.135 127.097 265.122 127.406 266.379 127.417C268.439 127.436 269.815 130.252 266.963 131.066C263.604 132.024 260.34 132.632 260.34 132.632L261.826 136.291C264.711 138.028 272.452 146.89 272.762 137.623C270.265 133.913 269.049 131.818 269.861 130.154C270.922 127.982 272.911 129.098 276.085 134.228C279.259 139.357 281.146 140.082 281.856 144.826C281.856 144.826 284.486 158.288 275.381 159.994Z" fill="#9C6444"/>
    <path d="M276.697 149.777C276.607 149.744 271.581 147.56 271.919 140.203C271.937 139.75 272.529 139.827 272.502 140.283C271.904 148.101 278.535 149.182 276.697 149.777Z" fill="#511918"/>
    <path d="M254.436 123.193C252.839 122.409 250.999 127.592 250.999 127.592C250.999 127.592 250.084 133.936 250.336 135.712C250.588 137.488 254.821 145.129 254.821 145.129L260.71 141.896C260.71 141.896 254.977 135.736 254.548 134.785C253.152 131.892 257.207 124.224 254.436 123.193Z" fill="#9C6444"/>
    <path d="M246.261 132.166C243.329 134.589 246.684 141.873 248.121 144.552C248.981 145.618 256.723 148.36 256.723 148.36L259.738 143.044C259.738 143.044 250.707 140.921 250.334 140.182C249.962 139.442 247.82 131.486 246.261 132.166Z" fill="#9C6444"/>
    <path d="M251.248 139.687C248.316 142.109 251.668 149.394 253.105 152.074C253.965 153.141 261.706 155.886 261.706 155.886L264.722 150.572C264.722 150.572 255.184 148.445 254.811 147.705C254.439 146.966 252.808 139.008 251.248 139.687Z" fill="#9C6444"/>
    <path d="M259.271 150.118C257.429 149.035 254.565 148.488 254.294 145.743C253.792 143.907 252.747 140.086 251.834 139.528C250.189 139.462 250.491 143.814 251.058 145.585C250.196 148.052 249.253 138.959 251.354 138.843C253.434 138.446 254.26 144.22 255.271 147.02C255.471 147.412 257.581 148.593 259.421 149.462C259.754 149.608 259.612 150.235 259.271 150.118Z" fill="#511918"/>
    <path d="M260.182 141.009C260.07 141.001 256.057 137.394 255.956 137.336C255.827 137.223 255.795 137.009 255.884 136.859C255.961 136.065 260.229 140.437 260.402 140.408C260.657 140.617 260.472 141.11 260.182 141.009Z" fill="#511918"/>
    <path d="M257.551 144.316C257.387 144.085 253.086 142.526 253.449 141.953C253.506 141.783 253.668 141.704 253.813 141.773C253.828 141.954 259.331 143.94 257.551 144.316Z" fill="#511918"/>
    <path d="M319.944 209.244C319.798 209.201 319.698 209.027 319.717 208.841C320.932 197.038 313.085 189.948 313.398 188.985C313.825 188.08 322.344 199.113 319.944 209.244Z" fill="#565797"/>
    <path d="M508.934 179.347C502.411 185.635 493.921 229.229 477.139 234.383C476.869 234.466 476.595 234.546 476.324 234.625C471.09 236.168 465.961 236.857 460.167 232.359C459.576 231.621 458.998 230.783 458.434 229.836C451.028 217.359 465.934 195.029 469.072 190.462C470.127 188.928 470.874 187.289 471.404 185.79C471.422 185.821 471.44 185.852 471.458 185.883C471.787 185.138 472.216 183.725 472.745 181.839C476.609 168.082 485.782 129.155 499.301 141.004C506.172 146.095 517.216 171.365 508.934 179.347Z" fill="#DA5DA7"/>
    <path d="M495.396 155.645C503.335 171.059 510.092 165.323 502.302 149.785C494.364 134.372 487.606 140.107 495.396 155.645Z" fill="#565797"/>
    <path d="M504.623 152.609C506.163 152.566 526.511 143.066 523.741 136.349C521.895 135.712 524.946 132.775 522.504 132.22C522.504 132.22 522.544 130.359 522.73 128.962C522.939 127.395 521.662 128.531 521.662 128.531C521.662 128.531 520.054 128.839 519.949 127.067C519.845 125.294 519.016 117.875 517.467 117.138C515.919 116.401 509.341 117.947 508.151 118.181C506.2 118.564 505.328 121.645 508.158 121.961C511.49 122.334 514.678 122.37 514.678 122.37L513.833 126.32C511.364 128.581 505.385 138.883 503.667 129.597C505.464 125.415 506.295 123.089 505.269 121.555C503.929 119.552 502.215 121.03 499.994 126.761C497.773 132.493 496.094 133.556 496.151 138.464C496.17 140.154 496.663 148.946 504.623 152.609Z" fill="#9C6444"/>
    <path d="M501.767 142.829C500.177 142.309 506.114 140.256 504.357 132.464C504.258 132.012 504.82 131.821 504.902 132.28C506.315 139.74 501.964 142.746 501.767 142.829Z" fill="#511918"/>
    <path d="M498.711 139.757L493.708 152.025C493.708 152.025 496.862 160.525 500.981 163.511C503.018 160.386 506.684 151.411 506.684 151.411" fill="#9C6444"/>
    <path d="M519.061 111.53C520.498 110.425 523.002 115.126 523.002 115.126C523.002 115.126 524.773 121.159 524.778 122.954C524.782 124.75 521.752 133.134 521.752 133.134L515.601 131.196C515.601 131.196 520.29 123.95 520.572 122.927C521.523 119.847 516.526 113.085 519.061 111.53Z" fill="#9C6444"/>
    <path d="M528.091 118.573C531.263 120.33 529.024 128.223 528.004 131.17C527.319 132.405 520.206 136.768 520.206 136.768L516.553 132.181C516.553 132.181 524.999 128.15 525.257 127.342C525.515 126.534 526.488 118.239 528.091 118.573Z" fill="#9C6444"/>
    <path d="M524.369 127.217C527.541 128.974 525.303 136.868 524.283 139.815C523.597 141.05 516.485 145.412 516.485 145.412L512.832 140.825C512.832 140.825 521.77 136.686 522.028 135.878C522.286 135.071 522.766 126.883 524.369 127.217Z" fill="#9C6444"/>
    <path d="M517.945 139.241C517.649 139.333 517.489 138.797 517.766 138.601C519.432 137.347 521.316 135.726 521.456 135.296C521.843 132.623 522.355 127.359 523.437 126.599C525.813 125.355 526.286 130.955 525.892 133.075C525.82 133.526 525.266 133.418 525.344 132.97C525.651 131.097 525.339 126.737 523.753 127.154C522.945 127.903 522.46 131.903 522.226 133.825C522.342 136.588 519.597 137.824 517.945 139.241Z" fill="#511918"/>
    <path d="M515.98 130.375C515.725 130.456 515.545 130.039 515.742 129.804C515.931 129.776 519.432 124.548 519.634 125.3C519.74 125.43 519.738 125.648 519.629 125.788L516.128 130.272C516.086 130.327 516.034 130.361 515.98 130.375Z" fill="#511918"/>
    <path d="M518.864 133.108C517.284 132.97 522.197 129.941 522.179 129.743C522.48 129.499 522.767 130.074 522.459 130.309C522.348 130.368 518.985 133.091 518.864 133.108Z" fill="#511918"/>
    <path d="M470.602 204.112C466.41 195.689 471.831 183.902 472.217 184.915C472.74 185.637 467.257 193.81 470.811 203.597C470.891 203.81 470.784 204.073 470.602 204.112Z" fill="#565797"/>
    </svg>
    