<svg width="30" height="30" viewBox="0 0 30 30" fill="none" xmlns="http://www.w3.org/2000/svg">
    <path d="M26.8413 11.843C26.8413 11.6336 26.7581 11.4328 26.6101 11.2847C26.4621 11.1367 26.2613 11.0535 26.0519 11.0535C25.8425 11.0535 25.6417 11.1367 25.4937 11.2847C25.3456 11.4328 25.2625 11.6336 25.2625 11.843H26.8413ZM4.73752 11.843C4.73752 11.6336 4.65435 11.4328 4.50631 11.2847C4.35826 11.1367 4.15747 11.0535 3.9481 11.0535C3.73874 11.0535 3.53794 11.1367 3.3899 11.2847C3.24185 11.4328 3.15868 11.6336 3.15868 11.843H4.73752ZM28.6507 15.5596C28.7989 15.7079 28.9999 15.7911 29.2096 15.7911C29.4192 15.7911 29.6203 15.7079 29.7685 15.5596C29.9167 15.4114 30 15.2103 30 15.0007C30 14.7911 29.9167 14.59 29.7685 14.4418L28.6507 15.5596ZM15 0.790848L15.5589 0.231927C15.4856 0.158409 15.3985 0.100081 15.3026 0.0602834C15.2067 0.0204857 15.1038 0 15 0C14.8962 0 14.7933 0.0204857 14.6974 0.0602834C14.6015 0.100081 14.5144 0.158409 14.4411 0.231927L15 0.790848ZM0.231508 14.4418C0.0832758 14.59 0 14.7911 0 15.0007C0 15.2103 0.0832758 15.4114 0.231508 15.5596C0.37974 15.7079 0.580786 15.7911 0.790418 15.7911C1.00005 15.7911 1.2011 15.7079 1.34933 15.5596L0.231508 14.4418ZM7.10579 30H22.8942V28.4211H7.10579V30ZM26.8413 26.0528V11.843H25.2625V26.0528H26.8413ZM4.73752 26.0528V11.843H3.15868V26.0528H4.73752ZM29.7685 14.4418L15.5589 0.231927L14.4411 1.34977L28.6507 15.5596L29.7685 14.4418ZM14.4411 0.231927L0.231508 14.4418L1.34933 15.5596L15.5589 1.34977L14.4411 0.231927ZM22.8942 30C23.941 30 24.945 29.5841 25.6852 28.8439C26.4255 28.1037 26.8413 27.0997 26.8413 26.0528H25.2625C25.2625 26.6809 25.013 27.2833 24.5688 27.7275C24.1247 28.1716 23.5223 28.4211 22.8942 28.4211V30ZM7.10579 28.4211C6.47769 28.4211 5.87531 28.1716 5.43117 27.7275C4.98704 27.2833 4.73752 26.6809 4.73752 26.0528H3.15868C3.15868 27.0997 3.57454 28.1037 4.31476 28.8439C5.05499 29.5841 6.05895 30 7.10579 30V28.4211Z" fill="white"/>
    </svg>
    