<svg width="28" height="28" viewBox="0 0 28 28" fill="none" xmlns="http://www.w3.org/2000/svg">
    <circle cx="14" cy="14" r="14" fill="#FFFAEF"/>
    <path d="M11.06 7H16.94C19.18 7 21 8.82 21 11.06V16.94C21 18.0168 20.5723 19.0495 19.8109 19.8109C19.0495 20.5723 18.0168 21 16.94 21H11.06C8.82 21 7 19.18 7 16.94V11.06C7 9.98322 7.42775 8.95054 8.18915 8.18915C8.95054 7.42775 9.98322 7 11.06 7ZM10.92 8.4C10.2517 8.4 9.61068 8.6655 9.13809 9.13809C8.6655 9.61068 8.4 10.2517 8.4 10.92V17.08C8.4 18.473 9.527 19.6 10.92 19.6H17.08C17.7483 19.6 18.3893 19.3345 18.8619 18.8619C19.3345 18.3893 19.6 17.7483 19.6 17.08V10.92C19.6 9.527 18.473 8.4 17.08 8.4H10.92ZM17.675 9.45C17.9071 9.45 18.1296 9.54219 18.2937 9.70628C18.4578 9.87038 18.55 10.0929 18.55 10.325C18.55 10.5571 18.4578 10.7796 18.2937 10.9437C18.1296 11.1078 17.9071 11.2 17.675 11.2C17.4429 11.2 17.2204 11.1078 17.0563 10.9437C16.8922 10.7796 16.8 10.5571 16.8 10.325C16.8 10.0929 16.8922 9.87038 17.0563 9.70628C17.2204 9.54219 17.4429 9.45 17.675 9.45ZM14 10.5C14.9283 10.5 15.8185 10.8687 16.4749 11.5251C17.1313 12.1815 17.5 13.0717 17.5 14C17.5 14.9283 17.1313 15.8185 16.4749 16.4749C15.8185 17.1313 14.9283 17.5 14 17.5C13.0717 17.5 12.1815 17.1313 11.5251 16.4749C10.8687 15.8185 10.5 14.9283 10.5 14C10.5 13.0717 10.8687 12.1815 11.5251 11.5251C12.1815 10.8687 13.0717 10.5 14 10.5ZM14 11.9C13.443 11.9 12.9089 12.1212 12.5151 12.5151C12.1212 12.9089 11.9 13.443 11.9 14C11.9 14.557 12.1212 15.0911 12.5151 15.4849C12.9089 15.8788 13.443 16.1 14 16.1C14.557 16.1 15.0911 15.8788 15.4849 15.4849C15.8788 15.0911 16.1 14.557 16.1 14C16.1 13.443 15.8788 12.9089 15.4849 12.5151C15.0911 12.1212 14.557 11.9 14 11.9Z" fill="#A38262"/>
    </svg>
    