<svg width="61" height="63" viewBox="0 0 61 63" fill="none" xmlns="http://www.w3.org/2000/svg">
    <path d="M6.00397 40.554C6.14997 35.646 3.47997 33.798 0.223968 32.577C-0.858032 36.776 2.12797 40.27 6.00397 40.554ZM6.74097 18.639C8.81697 14.194 7.09697 11.428 4.58097 9.021C1.93997 12.453 3.29797 16.841 6.74097 18.639ZM7.91197 31.013C7.76897 26.108 10.436 24.252 13.694 23.036C14.772 27.233 11.788 30.726 7.91197 31.013ZM7.91197 38.578C7.76897 33.673 10.436 31.822 13.694 30.603C14.772 34.799 11.788 38.293 7.91197 38.578ZM7.91197 23.451C7.76897 18.544 10.436 16.688 13.694 15.469C14.772 19.67 11.788 23.162 7.91197 23.451ZM6.00397 32.99C6.14997 28.085 3.47997 26.229 0.223968 25.013C-0.858032 29.21 2.12797 32.704 6.00397 32.99ZM6.00397 25.428C6.14997 20.52 3.47997 18.665 0.223968 17.444C-0.858032 21.647 2.12797 25.136 6.00397 25.428ZM42.773 62.435H16.462L29.619 39.639L42.773 62.435ZM21.689 59.416H37.547L29.618 45.681L21.689 59.416ZM2.16297 46.906L57.904 31.742L57.076 28.679L1.33097 43.845L2.16297 46.906ZM41.496 0C41.496 0 41.904 8.041 48.952 7.359C48.952 7.359 49.747 0.641 41.496 0ZM48.875 26.153C48.4963 26.6853 47.9955 27.119 47.4144 27.4176C46.8334 27.7162 46.1892 27.871 45.536 27.869C44.413 27.869 43.313 27.341 42.571 26.601C41.053 24.945 39.085 21.243 39.085 21.243C37.982 19.004 37.391 17.272 37.391 15.521C37.391 11.791 40.41 8.556 44.15 8.556C45.9174 8.55479 47.6146 9.24789 48.876 10.486C50.1363 9.24765 51.833 8.55446 53.6 8.556C57.339 8.556 60.358 11.791 60.358 15.521C60.358 17.272 59.766 19.004 58.664 21.243C58.664 21.243 56.696 24.944 55.178 26.601C54.436 27.341 53.336 27.869 52.212 27.869C51.5588 27.8712 50.9147 27.7165 50.3338 27.4178C49.7529 27.1192 49.2533 26.6854 48.875 26.153Z" fill="black"/>
    </svg>
    