<svg width="32" height="32" viewBox="0 0 32 32" fill="none" xmlns="http://www.w3.org/2000/svg">
    <path d="M16 0C12.8355 0 9.74207 0.938384 7.11088 2.69649C4.4797 4.45459 2.42894 6.95345 1.21793 9.87706C0.00693253 12.8007 -0.309921 16.0177 0.307443 19.1214C0.924806 22.2251 2.44866 25.0761 4.6863 27.3137C6.92394 29.5513 9.77487 31.0752 12.8786 31.6926C15.9823 32.3099 19.1993 31.9931 22.1229 30.7821C25.0466 29.5711 27.5454 27.5203 29.3035 24.8891C31.0616 22.2579 32 19.1645 32 16C32 11.7565 30.3143 7.68687 27.3137 4.68629C24.3131 1.68571 20.2435 0 16 0ZM16 29.7143C13.2876 29.7143 10.6361 28.91 8.38076 27.403C6.12545 25.8961 4.36766 23.7542 3.32966 21.2482C2.29166 18.7423 2.02007 15.9848 2.54924 13.3245C3.07841 10.6642 4.38456 8.22051 6.30254 6.30253C8.22052 4.38456 10.6642 3.0784 13.3245 2.54923C15.9848 2.02006 18.7423 2.29165 21.2482 3.32965C23.7542 4.36765 25.8961 6.12545 27.403 8.38075C28.91 10.6361 29.7143 13.2876 29.7143 16C29.7143 19.6373 28.2694 23.1255 25.6975 25.6975C23.1255 28.2694 19.6373 29.7143 16 29.7143Z" fill="white"/>
    <path d="M16 26C17.1046 26 18 25.3284 18 24.5C18 23.6716 17.1046 23 16 23C14.8954 23 14 23.6716 14 24.5C14 25.3284 14.8954 26 16 26Z" fill="white"/>
    <path d="M16.8571 7.00001H15.1429C14.4671 6.99852 13.7976 7.12908 13.173 7.3842C12.5484 7.63931 11.9808 8.01396 11.503 8.48662C11.0251 8.95929 10.6463 9.52066 10.3884 10.1385C10.1305 10.7564 9.99851 11.4185 10 12.087V12.6522H12.2857V12.087C12.2857 11.3374 12.5867 10.6186 13.1226 10.0886C13.6584 9.55863 14.3851 9.26088 15.1429 9.26088H16.8571C17.6149 9.26088 18.3416 9.55863 18.8775 10.0886C19.4133 10.6186 19.7143 11.3374 19.7143 12.087C19.7143 12.8365 19.4133 13.5553 18.8775 14.0853C18.3416 14.6153 17.6149 14.913 16.8571 14.913H14.5714V20H16.8571V17.1739C18.2211 17.1739 19.5292 16.638 20.4937 15.684C21.4582 14.73 22 13.4361 22 12.087C22 10.7378 21.4582 9.44394 20.4937 8.48995C19.5292 7.53596 18.2211 7.00001 16.8571 7.00001Z" fill="white"/>
    </svg>
    