<svg width="1440" height="178" viewBox="0 0 1440 178" fill="none" xmlns="http://www.w3.org/2000/svg">
    <path d="M-9 129.779L8.53687 116.368C26.0737 103.157 60.65 76.0327 96.7188 70.859C131.419 65.4844 166.369 81.558 201.194 84.2202C236.765 87.0834 272.087 76.0327 306.913 84.2202C342.235 92.1064 377.806 119.231 412.631 124.404C447.581 129.779 482.281 113.705 518.35 103.006C552.926 92.1064 588 87.0834 622.825 86.9327C658.272 87.0834 693.719 92.1064 728.544 97.6317C763.617 103.157 798.194 108.18 834.263 100.294C868.963 92.1064 903.912 71.0097 938.737 57.4475C974.309 43.8854 1009.63 38.8624 1044.46 46.7485C1079.65 54.9361 1115.35 76.0327 1150.17 94.9695C1185 113.705 1219.82 129.779 1254.65 124.404C1290.35 119.231 1325.54 92.1064 1360.37 73.5212C1395.69 54.936 1431.26 43.8854 1466.09 54.7853C1501.04 65.4844 1535.74 97.6317 1571.81 100.294C1606.38 103.157 1641.46 76.0327 1676.28 62.8222C1711.73 49.4107 1747.17 49.4107 1764.59 49.4107H1782V178H1764.46C1746.93 178 1712.35 178 1676.28 178C1641.58 178 1606.63 178 1571.81 178C1536.23 178 1500.91 178 1466.09 178C1430.77 178 1395.19 178 1360.37 178C1325.42 178 1290.72 178 1254.65 178C1220.07 178 1185 178 1150.17 178C1114.73 178 1079.28 178 1044.46 178C1009.38 178 974.806 178 938.737 178C904.037 178 869.087 178 834.263 178C798.691 178 763.369 178 728.544 178C693.346 178 657.65 178 622.825 178C588 178 553.175 178 518.35 178C482.654 178 447.456 178 412.631 178C377.309 178 341.737 178 306.913 178C271.963 178 237.262 178 201.194 178C166.617 178 131.544 178 96.7188 178C61.2719 178 25.825 178 8.4125 178H-9V129.779Z" fill="#5D5D5D"/>
    <path d="M-9 106.063L8.53687 89.6715C26.0737 73.5253 60.65 40.3733 96.7188 34.0499C131.419 27.4809 166.369 47.1265 201.194 50.3803C236.765 53.8797 272.087 40.3733 306.913 50.3803C342.235 60.0189 377.806 93.1708 412.631 99.4943C447.581 106.063 482.281 86.4177 518.35 73.3411C552.926 60.0189 588 53.8797 622.825 53.6955C658.272 53.8797 693.719 60.0189 728.544 66.7721C763.617 73.5252 798.194 79.6645 834.263 70.0259C868.963 60.0189 903.912 34.2341 938.737 17.6581C974.309 1.08215 1009.63 -5.05708 1044.46 4.58153C1079.65 14.5885 1115.35 40.3733 1150.17 63.5183C1185 86.4177 1219.83 106.063 1254.65 99.4943C1290.35 93.1708 1325.54 60.0189 1360.37 37.3037C1395.69 14.5885 1431.26 1.08215 1466.09 14.4043C1501.04 27.4809 1535.74 66.7721 1571.81 70.0259C1606.38 73.5252 1641.46 40.3733 1676.28 24.2271C1711.73 7.83533 1747.18 7.83533 1764.59 7.83533H1782V165H1764.46C1746.93 165 1712.35 165 1676.28 165C1641.58 165 1606.63 165 1571.81 165C1536.23 165 1500.91 165 1466.09 165C1430.77 165 1395.19 165 1360.37 165C1325.42 165 1290.72 165 1254.65 165C1220.07 165 1185 165 1150.17 165C1114.73 165 1079.28 165 1044.46 165C1009.38 165 974.806 165 938.737 165C904.037 165 869.088 165 834.263 165C798.691 165 763.369 165 728.544 165C693.346 165 657.65 165 622.825 165C588 165 553.175 165 518.35 165C482.654 165 447.456 165 412.631 165C377.309 165 341.738 165 306.913 165C271.963 165 237.262 165 201.194 165C166.617 165 131.544 165 96.7188 165C61.2719 165 25.825 165 8.4125 165H-9V106.063Z" fill="#5D5D5D" fill-opacity="0.13"/>
    </svg>
    