<svg width="244" height="25" viewBox="0 0 244 25" fill="none" xmlns="http://www.w3.org/2000/svg">
    <path d="M10.0351 23.9572C13.1863 23.3935 16.593 23.168 19.8294 22.9425C21.703 22.8298 23.4915 22.7734 25.3652 22.717C28.0054 22.6043 30.6456 22.5479 33.3709 22.5479C38.481 22.4915 43.5058 22.4352 48.6159 22.4352C58.7507 22.4352 68.8856 22.3788 79.1057 22.0406C89.6664 21.7024 100.142 21.3641 110.703 21.0259C120.667 20.6877 130.632 20.3495 140.682 20.124C150.646 19.8422 160.696 19.6167 170.66 19.2221C180.88 18.7711 191.101 18.5457 201.321 18.3765C206.175 18.2638 211.03 18.1511 215.884 17.8129C218.439 17.6437 220.909 17.4183 223.464 17.1928C225.934 16.9673 228.404 16.8546 230.874 16.6855C233.173 16.5163 235.387 16.5727 237.687 16.6855C239.305 16.5727 240.583 16.009 241.434 15.0507C241.86 14.4307 242.371 13.867 242.797 13.2469C243.649 11.6685 244.074 10.0338 243.989 8.34273C243.989 6.65164 243.649 5.01691 242.797 3.43856C242.371 2.81849 241.86 2.25479 241.434 1.63472C240.583 0.676437 239.39 0.169109 237.687 0C236.409 0.0563698 235.217 0.169109 233.94 0.225479C232.832 0.281849 231.64 0.281849 230.533 0.281849C228.063 0.281849 225.678 0.338219 223.209 0.394589C218.098 0.507328 213.074 0.732807 207.964 0.845547C198.084 1.01466 188.205 1.07103 178.411 1.46561C173.13 1.69109 167.85 1.91657 162.57 2.08568C157.8 2.25479 152.946 2.36753 148.176 2.48027C137.956 2.70575 127.736 3.04397 117.516 3.38219C107.466 3.72041 97.3315 4.05862 87.2817 4.39684C81.7459 4.56595 76.1248 4.79143 70.589 4.96054C65.5641 5.12965 60.6244 5.12965 55.5996 5.18602C45.3795 5.24239 35.1594 5.29876 24.9394 5.69335C22.3844 5.80609 19.9145 5.91883 17.4447 6.14431C15.4007 6.31342 13.3567 6.5389 11.3978 6.82074C9.8648 7.04622 8.33179 7.38444 6.88395 7.72266C6.03228 7.89177 5.1806 8.22999 4.4141 8.56821C2.88109 9.35739 1.85908 10.372 1.26291 11.6122C-0.0997599 13.9797 -0.270094 16.7982 0.326076 19.2785C0.666745 20.7441 1.43325 22.1533 2.62559 23.3935C3.22176 23.7881 3.81793 24.1826 4.4141 24.5772C5.77677 25.1409 7.13945 25.1409 8.41696 24.5772C8.75762 24.3517 9.43896 24.1263 10.0351 23.9572Z" fill="#7779A4"/>
    </svg>
    